<svg width="50" height="50" viewBox="0 0 50 50" fill="none" xmlns="http://www.w3.org/2000/svg">
<path d="M25 50C38.8071 50 50 38.8071 50 25C50 11.1929 38.8071 0 25 0C11.1929 0 0 11.1929 0 25C0 38.8071 11.1929 50 25 50Z" fill="#FF9600"/>
<path fill-rule="evenodd" clip-rule="evenodd" d="M33.9968 22.6484C34.3722 20.1266 32.4614 18.7709 29.8486 17.8666L30.6961 14.4504L28.6267 13.9322L27.8016 17.2583C27.2576 17.1221 26.6988 16.9936 26.1436 16.8662L26.9747 13.5182L24.9064 13L24.0583 16.4149C23.608 16.3119 23.1659 16.21 22.7369 16.1028L22.7392 16.0922L19.8853 15.3761L19.3348 17.5971C19.3348 17.5971 20.8702 17.9507 20.8378 17.9726C21.6759 18.1828 21.8274 18.7401 21.8021 19.182L20.8366 23.0737C20.8944 23.0885 20.9692 23.1098 21.0518 23.143L20.9816 23.1254L20.9814 23.1253C20.9334 23.1132 20.8838 23.1007 20.8331 23.0885L19.4798 28.5402C19.3773 28.7961 19.1173 29.1798 18.5315 29.0342C18.5521 29.0644 17.0273 28.6569 17.0273 28.6569L16 31.0372L18.693 31.7117C18.9937 31.7875 19.2909 31.8653 19.585 31.9424L19.5859 31.9427C19.7814 31.9939 19.9754 32.0447 20.1682 32.0943L19.3118 35.5496L21.3789 36.0678L22.227 32.6493C22.7917 32.8033 23.3398 32.9454 23.8762 33.0793L23.031 36.4818L25.1004 37L25.9568 33.5513C29.4855 34.2223 32.139 33.9517 33.2559 30.7446C34.1559 28.1624 33.2111 26.6728 31.3545 25.7015C32.7066 25.3882 33.7251 24.4945 33.9968 22.6484ZM29.2684 29.311C28.6816 31.6801 24.9913 30.7006 23.3027 30.2525C23.1508 30.2122 23.0151 30.1761 22.8993 30.1472L24.0357 25.5697C24.1766 25.6051 24.3489 25.6439 24.544 25.6879H24.5441C26.2905 26.0817 29.8696 26.8887 29.2684 29.311ZM24.8951 23.5626C26.3029 23.9402 29.3737 24.7636 29.9086 22.6104C30.4548 20.408 27.4702 19.7441 26.0126 19.4199C25.8487 19.3834 25.704 19.3512 25.5859 19.3216L24.5556 23.4733C24.653 23.4977 24.7672 23.5283 24.8951 23.5626Z" fill="white"/>
</svg>
