<svg width="50" height="50" viewBox="0 0 50 50" fill="none" xmlns="http://www.w3.org/2000/svg">
<path d="M25 50C38.8071 50 50 38.8071 50 25C50 11.1929 38.8071 0 25 0C11.1929 0 0 11.1929 0 25C0 38.8071 11.1929 50 25 50Z" fill="#627EEA"/>
<path d="M24.4996 13V21.8717L31.998 25.2224L24.4996 13Z" fill="white" fill-opacity="0.602"/>
<path d="M24.4995 13L17 25.2224L24.4995 21.8717V13Z" fill="white"/>
<path d="M24.4996 30.972V37.0002L32.003 26.6191L24.4996 30.972Z" fill="white" fill-opacity="0.602"/>
<path d="M24.4995 37.0002V30.971L17 26.6191L24.4995 37.0002Z" fill="white"/>
<path d="M24.4996 29.5765L31.998 25.2227L24.4996 21.874V29.5765Z" fill="white" fill-opacity="0.2"/>
<path d="M17 25.2227L24.4995 29.5765V21.874L17 25.2227Z" fill="white" fill-opacity="0.602"/>
</svg>
