<svg width="50" height="50" viewBox="0 0 50 50" fill="none" xmlns="http://www.w3.org/2000/svg">
<path d="M25 50C38.8071 50 50 38.8071 50 25C50 11.1929 38.8071 0 25 0C11.1929 0 0 11.1929 0 25C0 38.8071 11.1929 50 25 50Z" fill="#CBC6C6"/>
<path fill-rule="evenodd" clip-rule="evenodd" d="M22.7553 32.7774L24.6663 26.3332L27.644 25.4887L28.2662 23.3555L25.333 24.2443L28.444 13.667V13.4981C28.4417 13.4304 28.4261 13.3638 28.398 13.3021C28.37 13.2404 28.33 13.1849 28.2805 13.1387C28.231 13.0924 28.1728 13.0564 28.1094 13.0327C28.0459 13.0089 27.9784 12.9979 27.9107 13.0003H23.9553C23.8055 12.9957 23.6585 13.0413 23.5377 13.1299C23.4169 13.2185 23.3292 13.345 23.2886 13.4892L19.5999 26.0221L16.6666 26.9109L16 28.9553L18.9332 28.0664L16.3111 36.9994H31.955C32.1051 37.0056 32.2528 36.9606 32.3739 36.8718C32.4951 36.783 32.5824 36.6556 32.6216 36.5106L33.5105 33.444V33.2751C33.5082 33.2074 33.4926 33.1408 33.4645 33.0791C33.4364 33.0175 33.3965 32.9619 33.347 32.9157C33.2975 32.8695 33.2393 32.8335 33.1758 32.8097C33.1124 32.786 33.0449 32.775 32.9772 32.7774H22.7553Z" fill="white"/>
</svg>
