<svg width="50" height="50" viewBox="0 0 50 50" fill="none" xmlns="http://www.w3.org/2000/svg">
<circle cx="25" cy="25" r="25" fill="#6AA51D"/>
<path d="M31.3793 29.0137C31.3793 26.0624 28.3791 23.6617 24.689 23.6617C22.5141 23.6617 20.6754 22.4363 20.6754 20.9863C20.6754 19.5364 22.5141 18.311 24.689 18.311C25.9207 18.311 27.0596 18.6961 27.8146 19.3646C28.1722 19.6821 28.672 19.7847 29.1258 19.6337C29.5795 19.4828 29.9183 19.1012 30.0144 18.6328C30.1106 18.1644 29.9495 17.6802 29.5919 17.3628C28.6512 16.5312 27.397 15.9693 26.0273 15.7473V14.2973C26.0052 13.5745 25.4128 13 24.6896 13C23.9665 13 23.3741 13.5745 23.352 14.2973V15.7423C20.3016 16.2389 18 18.4013 18 20.9863C18 23.9376 21.0027 26.3383 24.689 26.3383C26.8652 26.3383 28.7027 27.5637 28.7027 29.0137C28.7027 30.4636 26.8652 31.689 24.689 31.689C23.4586 31.689 22.3184 31.3039 21.5646 30.6354C21.0118 30.1446 20.1659 30.1949 19.6751 30.7477C19.1843 31.3005 19.2345 32.1464 19.7873 32.6372C20.7268 33.4688 21.9823 34.0282 23.352 34.2527V35.7027C23.3741 36.4255 23.9665 37 24.6896 37C25.4128 37 26.0052 36.4255 26.0273 35.7027V34.2577C29.0777 33.7611 31.3793 31.5987 31.3793 29.0137Z" fill="#FAFAFA"/>
</svg>
